<svg width="321" height="162" viewBox="0 0 321 162" fill="none" xmlns="http://www.w3.org/2000/svg">
<g clip-path="url(#clip0_160_1660)">
<path d="M309.671 0H11.3294C5.07235 0 0 4.35179 0 9.72V152.28C0 157.648 5.07235 162 11.3294 162H309.671C315.928 162 321 157.648 321 152.28V9.72C321 4.35179 315.928 0 309.671 0Z" fill="#1D1E24"/>
<mask id="mask0_160_1660" style="mask-type:alpha" maskUnits="userSpaceOnUse" x="0" y="0" width="321" height="162">
<path d="M308.726 0H12.2735C5.49505 0 0 4.71444 0 10.53V151.47C0 157.286 5.49505 162 12.2735 162H308.726C315.505 162 321 157.286 321 151.47V10.53C321 4.71444 315.505 0 308.726 0Z" fill="#194BFB"/>
</mask>
<g mask="url(#mask0_160_1660)">
<path d="M214 94C214 149.228 258.772 194 314 194C369.228 194 414 149.228 414 94C414 38.7715 369.228 -6 314 -6C258.772 -6 214 38.7715 214 94ZM386.129 94C386.129 133.836 353.836 166.129 314 166.129C274.164 166.129 241.871 133.836 241.871 94C241.871 54.1643 274.164 21.871 314 21.871C353.836 21.871 386.129 54.1643 386.129 94Z" fill="url(#paint0_linear_160_1660)"/>
<path d="M277.301 93.6633C277.301 115.978 295.39 134.067 317.705 134.067C340.019 134.067 358.109 115.978 358.109 93.6633C358.109 71.3488 340.019 53.2593 317.705 53.2593C295.39 53.2593 277.301 71.3488 277.301 93.6633ZM341.415 93.6633C341.415 106.758 330.8 117.373 317.705 117.373C304.61 117.373 293.995 106.758 293.995 93.6633C293.995 80.5686 304.61 69.9533 317.705 69.9533C330.8 69.9533 341.415 80.5686 341.415 93.6633Z" fill="url(#paint1_linear_160_1660)"/>
</g>
<path d="M45.1993 47.79H22.5404C20.5851 47.79 19 49.15 19 50.8275V64.0815C19 65.7591 20.5851 67.119 22.5404 67.119H45.1993C47.1546 67.119 48.7397 65.7591 48.7397 64.0815V50.8275C48.7397 49.15 47.1546 47.79 45.1993 47.79Z" fill="url(#paint2_linear_160_1660)" stroke="#9F7E3B" stroke-width="0.5"/>
<path d="M19.2363 53.658H27.2613C28.3042 53.658 29.1496 54.3832 29.1496 55.278V58.4132M29.1496 58.4132V63.1684M29.1496 58.4132H19.2363M29.1496 66.9322V63.1684M29.1496 63.1684H19.2363" stroke="black" stroke-opacity="0.76" stroke-width="0.5"/>
<path d="M48.5037 53.6581H39.0625M39.0625 53.6581V58.4132M39.0625 53.6581V47.9922M39.0625 58.4132V63.1685M39.0625 58.4132H48.5037M39.0625 66.9322V63.1685M39.0625 63.1685H48.5037" stroke="black" stroke-opacity="0.76" stroke-width="0.5"/>
<path d="M281.293 124.51C280.13 124.153 278.901 123.973 277.663 123.98C273.661 123.98 270.834 125.683 270.814 128.127C270.789 129.923 272.822 130.935 274.361 131.535C275.94 132.151 276.468 132.54 276.462 133.092C276.452 133.93 275.201 134.311 274.038 134.311C272.44 134.311 271.567 134.122 270.223 133.652L269.726 133.455L269.158 136.269C270.131 136.611 271.885 136.905 273.696 136.93C277.951 136.93 280.732 135.238 280.765 132.637C280.8 131.203 279.699 130.119 277.383 129.223C275.975 128.643 275.101 128.254 275.101 127.664C275.101 127.142 275.849 126.585 277.413 126.585C278.453 126.563 279.488 126.729 280.447 127.069L280.823 127.21L281.39 124.491L281.293 124.51ZM291.679 124.208H288.552C287.579 124.208 286.846 124.435 286.421 125.249L280.407 136.755H284.662L285.513 134.868L290.706 134.872C290.829 135.314 291.204 136.755 291.204 136.755H294.956L291.679 124.208ZM265.058 124.103H269.113L266.576 136.656H262.527L265.058 124.098V124.103ZM254.764 131.022L255.184 132.764L259.147 124.208H263.442L257.06 136.738H252.775L249.273 126.128C249.217 125.953 249.083 125.803 248.9 125.708C247.638 125.157 246.301 124.74 244.918 124.464L244.973 124.2H251.499C252.385 124.23 253.098 124.464 253.336 125.262L254.761 131.028V131.022H254.764ZM286.676 132.301L288.292 128.791C288.272 128.828 288.625 128.066 288.83 127.594L289.107 128.678L290.046 132.3H286.673V132.301H286.676Z" fill="white"/>
<path d="M24.1201 100.14H22.3799V89.011C22.3799 88.5885 22.3799 88.2268 22.3799 87.926C22.387 87.6181 22.3942 87.3388 22.4014 87.0881C22.4157 86.8303 22.4336 86.5689 22.4551 86.304C22.2331 86.5331 22.0254 86.7301 21.832 86.8948C21.6387 87.0523 21.3988 87.2493 21.1123 87.4856L19.3184 88.925L18.3838 87.7112L22.6377 84.4348H24.1201V100.14ZM40.3623 100.14H30.0713V98.6467L34.2715 94.3821C35.0521 93.5943 35.7074 92.8925 36.2373 92.2766C36.7744 91.6607 37.1826 91.0556 37.4619 90.4612C37.7412 89.8596 37.8809 89.2008 37.8809 88.4846C37.8809 87.5966 37.6159 86.9198 37.0859 86.4543C36.5632 85.9817 35.8721 85.7454 35.0127 85.7454C34.2607 85.7454 33.5947 85.8743 33.0146 86.1321C32.4346 86.3899 31.8402 86.7551 31.2314 87.2278L30.2754 86.0247C30.6908 85.6737 31.1419 85.3622 31.6289 85.0901C32.123 84.818 32.6494 84.6031 33.208 84.4456C33.7738 84.288 34.3753 84.2092 35.0127 84.2092C35.9795 84.2092 36.8138 84.3775 37.5156 84.7141C38.2174 85.0507 38.7581 85.5305 39.1377 86.1536C39.5244 86.7766 39.7178 87.5178 39.7178 88.3772C39.7178 89.2079 39.5531 89.9814 39.2236 90.6975C38.8942 91.4065 38.4323 92.1119 37.8379 92.8137C37.2435 93.5084 36.5488 94.246 35.7539 95.0266L32.3379 98.4319V98.5071H40.3623V100.14ZM52.3721 88.0979C52.3721 88.7997 52.236 89.4084 51.9639 89.9241C51.6917 90.4397 51.3122 90.8622 50.8252 91.1917C50.3382 91.5139 49.7653 91.7395 49.1064 91.8684V91.9543C50.3525 92.1119 51.2871 92.5129 51.9102 93.1575C52.5404 93.802 52.8555 94.6471 52.8555 95.6926C52.8555 96.6021 52.6406 97.4078 52.2109 98.1096C51.7884 98.8114 51.1367 99.3629 50.2559 99.7639C49.3822 100.158 48.2614 100.355 46.8936 100.355C46.0628 100.355 45.293 100.287 44.584 100.151C43.8822 100.022 43.209 99.8033 42.5645 99.4954V97.8196C43.2161 98.1418 43.9251 98.3961 44.6914 98.5823C45.4577 98.7613 46.1989 98.8508 46.915 98.8508C48.3473 98.8508 49.3822 98.568 50.0195 98.0022C50.6569 97.4293 50.9756 96.6487 50.9756 95.6604C50.9756 94.9801 50.7965 94.4322 50.4385 94.0168C50.0876 93.5943 49.5791 93.2864 48.9131 93.093C48.2542 92.8925 47.4593 92.7922 46.5283 92.7922H44.96V91.2668H46.5391C47.3913 91.2668 48.1146 91.1415 48.709 90.8909C49.3034 90.6402 49.7546 90.2893 50.0625 89.8381C50.3776 89.3798 50.5352 88.8391 50.5352 88.2161C50.5352 87.4211 50.2702 86.8088 49.7402 86.3792C49.2103 85.9423 48.4906 85.7239 47.5811 85.7239C47.0225 85.7239 46.514 85.7812 46.0557 85.8958C45.5973 86.0103 45.1676 86.1679 44.7666 86.3684C44.3656 86.5689 43.9645 86.8017 43.5635 87.0667L42.6611 85.842C43.234 85.398 43.9323 85.0149 44.7559 84.6926C45.5794 84.3704 46.514 84.2092 47.5596 84.2092C49.1637 84.2092 50.3669 84.5745 51.1689 85.3049C51.971 86.0354 52.3721 86.9664 52.3721 88.0979ZM66.3262 96.4983H63.9736V100.14H62.2334V96.4983H54.6387V94.9944L62.1152 84.3489H63.9736V94.887H66.3262V96.4983ZM62.2334 94.887V89.7522C62.2334 89.3583 62.237 89.0038 62.2441 88.6887C62.2513 88.3665 62.262 88.0693 62.2764 87.7971C62.2907 87.5178 62.3014 87.2528 62.3086 87.0022C62.3229 86.7515 62.3337 86.5045 62.3408 86.261H62.2549C62.1188 86.5474 61.9613 86.8518 61.7822 87.1741C61.6104 87.4892 61.4349 87.7721 61.2559 88.0227L56.4111 94.887H62.2334ZM77.5518 88.0979C77.5518 88.7997 77.4157 89.4084 77.1436 89.9241C76.8714 90.4397 76.4919 90.8622 76.0049 91.1917C75.5179 91.5139 74.945 91.7395 74.2861 91.8684V91.9543C75.5322 92.1119 76.4668 92.5129 77.0898 93.1575C77.7201 93.802 78.0352 94.6471 78.0352 95.6926C78.0352 96.6021 77.8203 97.4078 77.3906 98.1096C76.9681 98.8114 76.3164 99.3629 75.4355 99.7639C74.5618 100.158 73.4411 100.355 72.0732 100.355C71.2425 100.355 70.4727 100.287 69.7637 100.151C69.0618 100.022 68.3887 99.8033 67.7441 99.4954V97.8196C68.3958 98.1418 69.1048 98.3961 69.8711 98.5823C70.6374 98.7613 71.3786 98.8508 72.0947 98.8508C73.527 98.8508 74.5618 98.568 75.1992 98.0022C75.8366 97.4293 76.1553 96.6487 76.1553 95.6604C76.1553 94.9801 75.9762 94.4322 75.6182 94.0168C75.2673 93.5943 74.7588 93.2864 74.0928 93.093C73.4339 92.8925 72.639 92.7922 71.708 92.7922H70.1396V91.2668H71.7188C72.571 91.2668 73.2943 91.1415 73.8887 90.8909C74.4831 90.6402 74.9342 90.2893 75.2422 89.8381C75.5573 89.3798 75.7148 88.8391 75.7148 88.2161C75.7148 87.4211 75.4499 86.8088 74.9199 86.3792C74.39 85.9423 73.6702 85.7239 72.7607 85.7239C72.2021 85.7239 71.6937 85.7812 71.2354 85.8958C70.777 86.0103 70.3473 86.1679 69.9463 86.3684C69.5452 86.5689 69.1442 86.8017 68.7432 87.0667L67.8408 85.842C68.4137 85.398 69.112 85.0149 69.9355 84.6926C70.7591 84.3704 71.6937 84.2092 72.7393 84.2092C74.3434 84.2092 75.5465 84.5745 76.3486 85.3049C77.1507 86.0354 77.5518 86.9664 77.5518 88.0979ZM91.5059 96.4983H89.1533V100.14H87.4131V96.4983H79.8184V94.9944L87.2949 84.3489H89.1533V94.887H91.5059V96.4983ZM87.4131 94.887V89.7522C87.4131 89.3583 87.4167 89.0038 87.4238 88.6887C87.431 88.3665 87.4417 88.0693 87.4561 87.7971C87.4704 87.5178 87.4811 87.2528 87.4883 87.0022C87.5026 86.7515 87.5133 86.5045 87.5205 86.261H87.4346C87.2985 86.5474 87.141 86.8518 86.9619 87.1741C86.79 87.4892 86.6146 87.7721 86.4355 88.0227L81.5908 94.887H87.4131ZM97.9834 90.5364C99.0505 90.5364 99.9779 90.719 100.766 91.0842C101.553 91.4423 102.162 91.9651 102.592 92.6526C103.029 93.3401 103.247 94.1744 103.247 95.1555C103.247 96.2297 103.014 97.1571 102.549 97.9377C102.083 98.7112 101.414 99.3092 100.54 99.7317C99.6663 100.147 98.6208 100.355 97.4033 100.355C96.5869 100.355 95.8278 100.283 95.126 100.14C94.4242 99.9967 93.8333 99.7818 93.3535 99.4954V97.7981C93.8763 98.1132 94.5101 98.3639 95.2549 98.55C95.9997 98.7362 96.723 98.8293 97.4248 98.8293C98.2197 98.8293 98.9144 98.704 99.5088 98.4534C100.11 98.1956 100.576 97.8088 100.905 97.2932C101.242 96.7704 101.41 96.1152 101.41 95.3274C101.41 94.2818 101.088 93.4762 100.443 92.9104C99.806 92.3375 98.7962 92.051 97.4141 92.051C96.9701 92.051 96.4831 92.0868 95.9531 92.1584C95.4232 92.2301 94.9863 92.3088 94.6426 92.3948L93.7402 91.804L94.3418 84.4348H102.151V86.0676H95.8672L95.4697 90.8049C95.7419 90.7476 96.0928 90.6903 96.5225 90.6331C96.9521 90.5686 97.4391 90.5364 97.9834 90.5364ZM107.641 100.14L114.086 86.0676H105.524V84.4348H115.998V85.8098L109.596 100.14H107.641ZM127.911 88.0979C127.911 88.7997 127.775 89.4084 127.503 89.9241C127.231 90.4397 126.851 90.8622 126.364 91.1917C125.877 91.5139 125.304 91.7395 124.646 91.8684V91.9543C125.892 92.1119 126.826 92.5129 127.449 93.1575C128.079 93.802 128.395 94.6471 128.395 95.6926C128.395 96.6021 128.18 97.4078 127.75 98.1096C127.327 98.8114 126.676 99.3629 125.795 99.7639C124.921 100.158 123.8 100.355 122.433 100.355C121.602 100.355 120.832 100.287 120.123 100.151C119.421 100.022 118.748 99.8033 118.104 99.4954V97.8196C118.755 98.1418 119.464 98.3961 120.23 98.5823C120.997 98.7613 121.738 98.8508 122.454 98.8508C123.886 98.8508 124.921 98.568 125.559 98.0022C126.196 97.4293 126.515 96.6487 126.515 95.6604C126.515 94.9801 126.336 94.4322 125.978 94.0168C125.627 93.5943 125.118 93.2864 124.452 93.093C123.793 92.8925 122.998 92.7922 122.067 92.7922H120.499V91.2668H122.078C122.93 91.2668 123.654 91.1415 124.248 90.8909C124.842 90.6402 125.294 90.2893 125.602 89.8381C125.917 89.3798 126.074 88.8391 126.074 88.2161C126.074 87.4211 125.809 86.8088 125.279 86.3792C124.749 85.9423 124.03 85.7239 123.12 85.7239C122.562 85.7239 122.053 85.7812 121.595 85.8958C121.136 86.0103 120.707 86.1679 120.306 86.3684C119.905 86.5689 119.504 86.8017 119.103 87.0667L118.2 85.842C118.773 85.398 119.471 85.0149 120.295 84.6926C121.118 84.3704 122.053 84.2092 123.099 84.2092C124.703 84.2092 125.906 84.5745 126.708 85.3049C127.51 86.0354 127.911 86.9664 127.911 88.0979ZM135.753 90.5364C136.82 90.5364 137.747 90.719 138.535 91.0842C139.323 91.4423 139.932 91.9651 140.361 92.6526C140.798 93.3401 141.017 94.1744 141.017 95.1555C141.017 96.2297 140.784 97.1571 140.318 97.9377C139.853 98.7112 139.183 99.3092 138.31 99.7317C137.436 100.147 136.39 100.355 135.173 100.355C134.356 100.355 133.597 100.283 132.896 100.14C132.194 99.9967 131.603 99.7818 131.123 99.4954V97.7981C131.646 98.1132 132.28 98.3639 133.024 98.55C133.769 98.7362 134.493 98.8293 135.194 98.8293C135.989 98.8293 136.684 98.704 137.278 98.4534C137.88 98.1956 138.345 97.8088 138.675 97.2932C139.011 96.7704 139.18 96.1152 139.18 95.3274C139.18 94.2818 138.857 93.4762 138.213 92.9104C137.576 92.3375 136.566 92.051 135.184 92.051C134.74 92.051 134.253 92.0868 133.723 92.1584C133.193 92.2301 132.756 92.3088 132.412 92.3948L131.51 91.804L132.111 84.4348H139.921V86.0676H133.637L133.239 90.8049C133.511 90.7476 133.862 90.6903 134.292 90.6331C134.722 90.5686 135.209 90.5364 135.753 90.5364ZM143.541 93.426C143.541 92.4807 143.605 91.5569 143.734 90.6545C143.87 89.7522 144.096 88.9143 144.411 88.1409C144.726 87.3603 145.156 86.6764 145.7 86.0891C146.244 85.5019 146.921 85.0435 147.73 84.7141C148.547 84.3775 149.524 84.2092 150.663 84.2092C150.985 84.2092 151.333 84.2271 151.705 84.2629C152.077 84.2916 152.385 84.3417 152.629 84.4133V85.9495C152.364 85.8564 152.06 85.7883 151.716 85.7454C151.379 85.7024 151.039 85.6809 150.695 85.6809C149.363 85.6809 148.314 85.9709 147.548 86.551C146.789 87.1311 146.241 87.9189 145.904 88.9143C145.568 89.9026 145.374 91.0162 145.324 92.2551H145.442C145.664 91.8971 145.947 91.5748 146.291 91.2883C146.635 90.9947 147.05 90.762 147.537 90.5901C148.031 90.4182 148.604 90.3323 149.256 90.3323C150.173 90.3323 150.971 90.5185 151.651 90.8909C152.339 91.2633 152.869 91.804 153.241 92.5129C153.621 93.2219 153.811 94.0813 153.811 95.0911C153.811 96.1724 153.61 97.107 153.209 97.8948C152.808 98.6825 152.235 99.2913 151.49 99.7209C150.753 100.143 149.872 100.355 148.848 100.355C148.081 100.355 147.376 100.208 146.731 99.9143C146.087 99.6207 145.525 99.1838 145.045 98.6038C144.572 98.0237 144.203 97.304 143.938 96.4446C143.674 95.578 143.541 94.5719 143.541 93.426ZM148.826 98.8508C149.8 98.8508 150.581 98.5393 151.168 97.9163C151.755 97.2932 152.049 96.3515 152.049 95.0911C152.049 94.0598 151.787 93.2434 151.265 92.6418C150.742 92.0403 149.954 91.7395 148.901 91.7395C148.185 91.7395 147.562 91.8899 147.032 92.1907C146.502 92.4843 146.09 92.8567 145.797 93.3079C145.503 93.759 145.356 94.2174 145.356 94.6829C145.356 95.1555 145.424 95.6353 145.561 96.1223C145.704 96.6093 145.919 97.0605 146.205 97.4758C146.492 97.8912 146.853 98.2242 147.29 98.4749C147.727 98.7255 148.239 98.8508 148.826 98.8508ZM161.158 84.2092C162.068 84.2092 162.873 84.3525 163.575 84.6389C164.277 84.9254 164.825 85.3479 165.219 85.9065C165.62 86.4579 165.82 87.1383 165.82 87.9475C165.82 88.5849 165.681 89.1435 165.401 89.6233C165.129 90.0959 164.76 90.5113 164.295 90.8694C163.829 91.2203 163.314 91.5354 162.748 91.8147C163.421 92.1226 164.026 92.47 164.563 92.8567C165.108 93.2434 165.537 93.6982 165.853 94.2209C166.168 94.7437 166.325 95.3632 166.325 96.0793C166.325 96.9602 166.11 97.7229 165.681 98.3674C165.258 99.0048 164.664 99.4954 163.897 99.8391C163.131 100.183 162.232 100.355 161.201 100.355C160.091 100.355 159.146 100.19 158.365 99.8606C157.592 99.524 157.001 99.0442 156.593 98.4211C156.192 97.7909 155.991 97.0354 155.991 96.1545C155.991 95.4312 156.145 94.8046 156.453 94.2747C156.761 93.7375 157.169 93.2756 157.678 92.8889C158.186 92.5022 158.741 92.1764 159.343 91.9114C158.82 91.6249 158.34 91.2991 157.903 90.9338C157.474 90.5686 157.13 90.1425 156.872 89.6555C156.621 89.1614 156.496 88.5885 156.496 87.9368C156.496 87.1418 156.697 86.4687 157.098 85.9172C157.506 85.3586 158.061 84.9361 158.763 84.6497C159.472 84.356 160.27 84.2092 161.158 84.2092ZM157.742 96.1653C157.742 96.9674 158.025 97.6298 158.591 98.1526C159.157 98.6682 160.012 98.926 161.158 98.926C162.247 98.926 163.088 98.6682 163.683 98.1526C164.277 97.6298 164.574 96.9459 164.574 96.1008C164.574 95.578 164.438 95.1197 164.166 94.7258C163.894 94.3248 163.507 93.9667 163.006 93.6516C162.505 93.3365 161.914 93.05 161.233 92.7922L160.847 92.6526C160.188 92.9247 159.626 93.2291 159.16 93.5657C158.702 93.8951 158.351 94.2711 158.107 94.6936C157.864 95.1161 157.742 95.6067 157.742 96.1653ZM161.137 85.6702C160.292 85.6702 159.601 85.8743 159.063 86.2825C158.526 86.6835 158.258 87.2636 158.258 88.0227C158.258 88.567 158.387 89.0289 158.645 89.4084C158.91 89.7808 159.268 90.1031 159.719 90.3752C160.17 90.6402 160.675 90.8873 161.233 91.1165C161.778 90.8873 162.261 90.6366 162.684 90.3645C163.106 90.0852 163.439 89.7558 163.683 89.3762C163.926 88.9967 164.048 88.5419 164.048 88.012C164.048 87.2528 163.779 86.6728 163.242 86.2717C162.712 85.8707 162.01 85.6702 161.137 85.6702ZM168.721 93.426C168.721 92.4807 168.785 91.5569 168.914 90.6545C169.05 89.7522 169.276 88.9143 169.591 88.1409C169.906 87.3603 170.336 86.6764 170.88 86.0891C171.424 85.5019 172.101 85.0435 172.91 84.7141C173.727 84.3775 174.704 84.2092 175.843 84.2092C176.165 84.2092 176.512 84.2271 176.885 84.2629C177.257 84.2916 177.565 84.3417 177.809 84.4133V85.9495C177.544 85.8564 177.239 85.7883 176.896 85.7454C176.559 85.7024 176.219 85.6809 175.875 85.6809C174.543 85.6809 173.494 85.9709 172.728 86.551C171.968 87.1311 171.421 87.9189 171.084 88.9143C170.747 89.9026 170.554 91.0162 170.504 92.2551H170.622C170.844 91.8971 171.127 91.5748 171.471 91.2883C171.814 90.9947 172.23 90.762 172.717 90.5901C173.211 90.4182 173.784 90.3323 174.436 90.3323C175.352 90.3323 176.151 90.5185 176.831 90.8909C177.519 91.2633 178.049 91.804 178.421 92.5129C178.8 93.2219 178.99 94.0813 178.99 95.0911C178.99 96.1724 178.79 97.107 178.389 97.8948C177.988 98.6825 177.415 99.2913 176.67 99.7209C175.932 100.143 175.051 100.355 174.027 100.355C173.261 100.355 172.556 100.208 171.911 99.9143C171.267 99.6207 170.704 99.1838 170.225 98.6038C169.752 98.0237 169.383 97.304 169.118 96.4446C168.853 95.578 168.721 94.5719 168.721 93.426ZM174.006 98.8508C174.98 98.8508 175.76 98.5393 176.348 97.9163C176.935 97.2932 177.229 96.3515 177.229 95.0911C177.229 94.0598 176.967 93.2434 176.444 92.6418C175.922 92.0403 175.134 91.7395 174.081 91.7395C173.365 91.7395 172.742 91.8899 172.212 92.1907C171.682 92.4843 171.27 92.8567 170.977 93.3079C170.683 93.759 170.536 94.2174 170.536 94.6829C170.536 95.1555 170.604 95.6353 170.74 96.1223C170.883 96.6093 171.098 97.0605 171.385 97.4758C171.671 97.8912 172.033 98.2242 172.47 98.4749C172.907 98.7255 173.419 98.8508 174.006 98.8508ZM192.225 96.4983H189.872V100.14H188.132V96.4983H180.537V94.9944L188.014 84.3489H189.872V94.887H192.225V96.4983ZM188.132 94.887V89.7522C188.132 89.3583 188.135 89.0038 188.143 88.6887C188.15 88.3665 188.16 88.0693 188.175 87.7971C188.189 87.5178 188.2 87.2528 188.207 87.0022C188.221 86.7515 188.232 86.5045 188.239 86.261H188.153C188.017 86.5474 187.86 86.8518 187.681 87.1741C187.509 87.4892 187.333 87.7721 187.154 88.0227L182.31 94.887H188.132ZM198.928 84.2092C199.837 84.2092 200.643 84.3525 201.345 84.6389C202.047 84.9254 202.594 85.3479 202.988 85.9065C203.389 86.4579 203.59 87.1383 203.59 87.9475C203.59 88.5849 203.45 89.1435 203.171 89.6233C202.899 90.0959 202.53 90.5113 202.064 90.8694C201.599 91.2203 201.083 91.5354 200.518 91.8147C201.191 92.1226 201.796 92.47 202.333 92.8567C202.877 93.2434 203.307 93.6982 203.622 94.2209C203.937 94.7437 204.095 95.3632 204.095 96.0793C204.095 96.9602 203.88 97.7229 203.45 98.3674C203.028 99.0048 202.433 99.4954 201.667 99.8391C200.901 100.183 200.002 100.355 198.971 100.355C197.861 100.355 196.915 100.19 196.135 99.8606C195.361 99.524 194.771 99.0442 194.362 98.4211C193.961 97.7909 193.761 97.0354 193.761 96.1545C193.761 95.4312 193.915 94.8046 194.223 94.2747C194.531 93.7375 194.939 93.2756 195.447 92.8889C195.956 92.5022 196.511 92.1764 197.112 91.9114C196.59 91.6249 196.11 91.2991 195.673 90.9338C195.243 90.5686 194.899 90.1425 194.642 89.6555C194.391 89.1614 194.266 88.5885 194.266 87.9368C194.266 87.1418 194.466 86.4687 194.867 85.9172C195.275 85.3586 195.83 84.9361 196.532 84.6497C197.241 84.356 198.04 84.2092 198.928 84.2092ZM195.512 96.1653C195.512 96.9674 195.795 97.6298 196.36 98.1526C196.926 98.6682 197.782 98.926 198.928 98.926C200.016 98.926 200.858 98.6682 201.452 98.1526C202.047 97.6298 202.344 96.9459 202.344 96.1008C202.344 95.578 202.208 95.1197 201.936 94.7258C201.663 94.3248 201.277 93.9667 200.775 93.6516C200.274 93.3365 199.683 93.05 199.003 92.7922L198.616 92.6526C197.957 92.9247 197.395 93.2291 196.93 93.5657C196.471 93.8951 196.12 94.2711 195.877 94.6936C195.633 95.1161 195.512 95.6067 195.512 96.1653ZM198.906 85.6702C198.061 85.6702 197.37 85.8743 196.833 86.2825C196.296 86.6835 196.027 87.2636 196.027 88.0227C196.027 88.567 196.156 89.0289 196.414 89.4084C196.679 89.7808 197.037 90.1031 197.488 90.3752C197.939 90.6402 198.444 90.8873 199.003 91.1165C199.547 90.8873 200.031 90.6366 200.453 90.3645C200.876 90.0852 201.209 89.7558 201.452 89.3762C201.696 88.9967 201.817 88.5419 201.817 88.012C201.817 87.2528 201.549 86.6728 201.012 86.2717C200.482 85.8707 199.78 85.6702 198.906 85.6702ZM217.404 96.4983H215.052V100.14H213.312V96.4983H205.717V94.9944L213.193 84.3489H215.052V94.887H217.404V96.4983ZM213.312 94.887V89.7522C213.312 89.3583 213.315 89.0038 213.322 88.6887C213.329 88.3665 213.34 88.0693 213.354 87.7971C213.369 87.5178 213.38 87.2528 213.387 87.0022C213.401 86.7515 213.412 86.5045 213.419 86.261H213.333C213.197 86.5474 213.039 86.8518 212.86 87.1741C212.688 87.4892 212.513 87.7721 212.334 88.0227L207.489 94.887H213.312ZM229.994 96.4983H227.642V100.14H225.901V96.4983H218.307V94.9944L225.783 84.3489H227.642V94.887H229.994V96.4983ZM225.901 94.887V89.7522C225.901 89.3583 225.905 89.0038 225.912 88.6887C225.919 88.3665 225.93 88.0693 225.944 87.7971C225.959 87.5178 225.969 87.2528 225.977 87.0022C225.991 86.7515 226.002 86.5045 226.009 86.261H225.923C225.787 86.5474 225.629 86.8518 225.45 87.1741C225.278 87.4892 225.103 87.7721 224.924 88.0227L220.079 94.887H225.901ZM236.472 90.5364C237.539 90.5364 238.466 90.719 239.254 91.0842C240.042 91.4423 240.65 91.9651 241.08 92.6526C241.517 93.3401 241.735 94.1744 241.735 95.1555C241.735 96.2297 241.503 97.1571 241.037 97.9377C240.572 98.7112 239.902 99.3092 239.028 99.7317C238.155 100.147 237.109 100.355 235.892 100.355C235.075 100.355 234.316 100.283 233.614 100.14C232.912 99.9967 232.322 99.7818 231.842 99.4954V97.7981C232.365 98.1132 232.998 98.3639 233.743 98.55C234.488 98.7362 235.211 98.8293 235.913 98.8293C236.708 98.8293 237.403 98.704 237.997 98.4534C238.599 98.1956 239.064 97.8088 239.394 97.2932C239.73 96.7704 239.898 96.1152 239.898 95.3274C239.898 94.2818 239.576 93.4762 238.932 92.9104C238.294 92.3375 237.285 92.051 235.902 92.051C235.458 92.051 234.971 92.0868 234.441 92.1584C233.911 92.2301 233.475 92.3088 233.131 92.3948L232.229 91.804L232.83 84.4348H240.64V86.0676H234.355L233.958 90.8049C234.23 90.7476 234.581 90.6903 235.011 90.6331C235.44 90.5686 235.927 90.5364 236.472 90.5364ZM244.26 93.426C244.26 92.4807 244.324 91.5569 244.453 90.6545C244.589 89.7522 244.815 88.9143 245.13 88.1409C245.445 87.3603 245.875 86.6764 246.419 86.0891C246.963 85.5019 247.64 85.0435 248.449 84.7141C249.266 84.3775 250.243 84.2092 251.382 84.2092C251.704 84.2092 252.051 84.2271 252.424 84.2629C252.796 84.2916 253.104 84.3417 253.348 84.4133V85.9495C253.083 85.8564 252.778 85.7883 252.435 85.7454C252.098 85.7024 251.758 85.6809 251.414 85.6809C250.082 85.6809 249.033 85.9709 248.267 86.551C247.507 87.1311 246.96 87.9189 246.623 88.9143C246.286 89.9026 246.093 91.0162 246.043 92.2551H246.161C246.383 91.8971 246.666 91.5748 247.01 91.2883C247.354 90.9947 247.769 90.762 248.256 90.5901C248.75 90.4182 249.323 90.3323 249.975 90.3323C250.891 90.3323 251.69 90.5185 252.37 90.8909C253.058 91.2633 253.588 91.804 253.96 92.5129C254.34 93.2219 254.529 94.0813 254.529 95.0911C254.529 96.1724 254.329 97.107 253.928 97.8948C253.527 98.6825 252.954 99.2913 252.209 99.7209C251.471 100.143 250.59 100.355 249.566 100.355C248.8 100.355 248.095 100.208 247.45 99.9143C246.806 99.6207 246.243 99.1838 245.764 98.6038C245.291 98.0237 244.922 97.304 244.657 96.4446C244.392 95.578 244.26 94.5719 244.26 93.426ZM249.545 98.8508C250.519 98.8508 251.299 98.5393 251.887 97.9163C252.474 97.2932 252.768 96.3515 252.768 95.0911C252.768 94.0598 252.506 93.2434 251.983 92.6418C251.461 92.0403 250.673 91.7395 249.62 91.7395C248.904 91.7395 248.281 91.8899 247.751 92.1907C247.221 92.4843 246.809 92.8567 246.516 93.3079C246.222 93.759 246.075 94.2174 246.075 94.6829C246.075 95.1555 246.143 95.6353 246.279 96.1223C246.423 96.6093 246.637 97.0605 246.924 97.4758C247.21 97.8912 247.572 98.2242 248.009 98.4749C248.446 98.7255 248.958 98.8508 249.545 98.8508Z" fill="white"/>
<path d="M21.2949 114.3H18.0605V108.589H21.2949V109.378H18.998V110.929H21.1504V111.714H18.998V113.507H21.2949V114.3ZM23.3926 112.089L21.9473 109.976H22.9941L23.9824 111.495L24.9746 109.976H26.0176L24.5645 112.089L26.0918 114.3H25.041L23.9824 112.679L22.9199 114.3H21.877L23.3926 112.089ZM29.0605 109.894C29.5736 109.894 29.985 110.081 30.2949 110.456C30.6074 110.831 30.7637 111.389 30.7637 112.128C30.7637 112.618 30.6908 113.031 30.5449 113.366C30.4017 113.7 30.1999 113.952 29.9395 114.124C29.6816 114.294 29.3809 114.378 29.0371 114.378C28.8184 114.378 28.6283 114.35 28.4668 114.292C28.3053 114.235 28.1673 114.161 28.0527 114.07C27.9382 113.976 27.8418 113.874 27.7637 113.765H27.709C27.722 113.869 27.7337 113.985 27.7441 114.113C27.7572 114.238 27.7637 114.352 27.7637 114.456V116.218H26.8418V109.976H27.5918L27.7207 110.573H27.7637C27.8444 110.451 27.9421 110.338 28.0566 110.234C28.1738 110.129 28.3145 110.047 28.4785 109.988C28.6452 109.925 28.8392 109.894 29.0605 109.894ZM28.8145 110.644C28.5618 110.644 28.3587 110.695 28.2051 110.796C28.054 110.895 27.9434 111.045 27.873 111.245C27.8053 111.446 27.7689 111.697 27.7637 111.999V112.128C27.7637 112.448 27.7962 112.721 27.8613 112.945C27.929 113.166 28.0397 113.335 28.1934 113.452C28.3496 113.567 28.5605 113.624 28.8262 113.624C29.0501 113.624 29.235 113.563 29.3809 113.441C29.5293 113.318 29.64 113.144 29.7129 112.917C29.7858 112.691 29.8223 112.424 29.8223 112.116C29.8223 111.65 29.7389 111.288 29.5723 111.031C29.4082 110.773 29.1556 110.644 28.8145 110.644ZM32.7441 109.976V114.3H31.8262V109.976H32.7441ZM32.291 108.32C32.4316 108.32 32.5527 108.357 32.6543 108.433C32.7585 108.508 32.8105 108.639 32.8105 108.823C32.8105 109.006 32.7585 109.136 32.6543 109.214C32.5527 109.29 32.4316 109.327 32.291 109.327C32.1452 109.327 32.0215 109.29 31.9199 109.214C31.821 109.136 31.7715 109.006 31.7715 108.823C31.7715 108.639 31.821 108.508 31.9199 108.433C32.0215 108.357 32.1452 108.32 32.291 108.32ZM36.252 109.894C36.3249 109.894 36.4043 109.898 36.4902 109.906C36.5762 109.913 36.6504 109.924 36.7129 109.937L36.627 110.796C36.5723 110.781 36.5046 110.769 36.4238 110.761C36.3457 110.753 36.2754 110.749 36.2129 110.749C36.0488 110.749 35.8926 110.777 35.7441 110.831C35.5957 110.883 35.4642 110.964 35.3496 111.073C35.235 111.18 35.1452 111.314 35.0801 111.476C35.015 111.637 34.9824 111.825 34.9824 112.038V114.3H34.0605V109.976H34.7793L34.9043 110.738H34.9473C35.0332 110.584 35.14 110.443 35.2676 110.316C35.3952 110.188 35.541 110.087 35.7051 110.011C35.8717 109.933 36.054 109.894 36.252 109.894ZM39.2363 109.894C39.6217 109.894 39.9525 109.973 40.2285 110.132C40.5046 110.291 40.7168 110.516 40.8652 110.808C41.0137 111.1 41.0879 111.448 41.0879 111.855V112.347H38.2012C38.2116 112.766 38.3236 113.089 38.5371 113.316C38.7533 113.542 39.0553 113.656 39.4434 113.656C39.7194 113.656 39.9668 113.629 40.1855 113.577C40.4069 113.523 40.6348 113.443 40.8691 113.339V114.085C40.653 114.187 40.4329 114.261 40.209 114.308C39.985 114.355 39.7168 114.378 39.4043 114.378C38.9798 114.378 38.6061 114.296 38.2832 114.132C37.9629 113.965 37.7116 113.718 37.5293 113.39C37.3496 113.062 37.2598 112.654 37.2598 112.167C37.2598 111.683 37.3418 111.271 37.5059 110.933C37.6699 110.594 37.9004 110.337 38.1973 110.159C38.4941 109.982 38.8405 109.894 39.2363 109.894ZM39.2363 110.585C38.9473 110.585 38.7129 110.679 38.5332 110.866C38.3561 111.054 38.252 111.329 38.2207 111.691H40.1895C40.1868 111.475 40.1504 111.283 40.0801 111.116C40.0124 110.95 39.9082 110.82 39.7676 110.726C39.6296 110.632 39.4525 110.585 39.2363 110.585Z" fill="white"/>
<path d="M50.6523 111.916C50.6523 112.492 50.6068 113.008 50.5156 113.464C50.4277 113.916 50.2878 114.3 50.0957 114.616C49.9036 114.932 49.653 115.173 49.3438 115.339C49.0345 115.505 48.6602 115.588 48.2207 115.588C47.6706 115.588 47.2165 115.443 46.8584 115.153C46.5003 114.86 46.235 114.44 46.0625 113.893C45.89 113.343 45.8037 112.684 45.8037 111.916C45.8037 111.148 45.8818 110.49 46.0381 109.943C46.1976 109.393 46.4548 108.971 46.8096 108.678C47.1644 108.385 47.6348 108.239 48.2207 108.239C48.7741 108.239 49.2298 108.385 49.5879 108.678C49.9492 108.968 50.2161 109.388 50.3887 109.938C50.5645 110.485 50.6523 111.144 50.6523 111.916ZM46.9609 111.916C46.9609 112.518 47 113.021 47.0781 113.425C47.1595 113.828 47.293 114.131 47.4785 114.333C47.6641 114.531 47.9115 114.631 48.2207 114.631C48.5299 114.631 48.7773 114.531 48.9629 114.333C49.1484 114.134 49.2819 113.833 49.3633 113.429C49.4479 113.026 49.4902 112.521 49.4902 111.916C49.4902 111.317 49.4495 110.816 49.3682 110.412C49.2868 110.008 49.1533 109.705 48.9678 109.504C48.7822 109.299 48.5332 109.196 48.2207 109.196C47.9082 109.196 47.6592 109.299 47.4736 109.504C47.2913 109.705 47.1595 110.008 47.0781 110.412C47 110.816 46.9609 111.317 46.9609 111.916ZM52.3564 115.49L55.1592 109.357H51.4531V108.351H56.3945V109.137L53.5918 115.49H52.3564ZM60.6377 108.351L57.9766 115.49H56.9023L59.5635 108.351H60.6377ZM66.0039 115.49H61.1699V114.626L63.0205 112.751C63.3786 112.386 63.6732 112.072 63.9043 111.808C64.1354 111.541 64.3063 111.289 64.417 111.052C64.5309 110.814 64.5879 110.555 64.5879 110.275C64.5879 109.93 64.4886 109.67 64.29 109.494C64.0915 109.315 63.8294 109.225 63.5039 109.225C63.1947 109.225 62.9082 109.287 62.6445 109.411C62.3841 109.531 62.1139 109.704 61.834 109.928L61.2041 109.172C61.4027 109.002 61.6143 108.848 61.8389 108.708C62.0667 108.568 62.3206 108.457 62.6006 108.376C62.8805 108.291 63.1995 108.249 63.5576 108.249C64.0101 108.249 64.4007 108.33 64.7295 108.493C65.0583 108.652 65.3105 108.875 65.4863 109.162C65.6654 109.448 65.7549 109.782 65.7549 110.163C65.7549 110.547 65.6784 110.902 65.5254 111.227C65.3724 111.553 65.1543 111.875 64.8711 112.194C64.5879 112.51 64.251 112.853 63.8604 113.224L62.625 114.43V114.484H66.0039V115.49ZM69.2998 108.254C69.7132 108.254 70.0859 108.319 70.418 108.449C70.75 108.576 71.0137 108.766 71.209 109.02C71.4043 109.274 71.502 109.588 71.502 109.963C71.502 110.252 71.4417 110.505 71.3213 110.719C71.2041 110.934 71.0446 111.123 70.8428 111.286C70.641 111.445 70.4147 111.587 70.1641 111.711C70.444 111.847 70.7012 112.005 70.9355 112.184C71.1732 112.36 71.3636 112.567 71.5068 112.804C71.6533 113.042 71.7266 113.32 71.7266 113.639C71.7266 114.04 71.624 114.386 71.4189 114.679C71.2171 114.969 70.9355 115.194 70.5742 115.353C70.2129 115.51 69.7913 115.588 69.3096 115.588C68.792 115.588 68.3509 115.511 67.9863 115.358C67.6217 115.205 67.3451 114.987 67.1562 114.704C66.9674 114.417 66.873 114.076 66.873 113.678C66.873 113.35 66.9382 113.065 67.0684 112.824C67.1986 112.583 67.3727 112.375 67.5908 112.199C67.8122 112.023 68.0547 111.875 68.3184 111.755C68.0938 111.621 67.8887 111.471 67.7031 111.305C67.5176 111.136 67.3695 110.942 67.2588 110.724C67.1514 110.503 67.0977 110.247 67.0977 109.958C67.0977 109.587 67.1969 109.276 67.3955 109.025C67.5941 108.771 67.8594 108.579 68.1914 108.449C68.5267 108.319 68.8962 108.254 69.2998 108.254ZM67.9668 113.635C67.9668 113.947 68.0775 114.204 68.2988 114.406C68.5202 114.608 68.8506 114.709 69.29 114.709C69.7262 114.709 70.0583 114.609 70.2861 114.411C70.514 114.212 70.6279 113.95 70.6279 113.625C70.6279 113.416 70.5693 113.233 70.4521 113.073C70.3382 112.913 70.1836 112.772 69.9883 112.648C69.7962 112.521 69.583 112.404 69.3486 112.297L69.1924 112.233C68.9385 112.341 68.7204 112.463 68.5381 112.599C68.3558 112.733 68.2142 112.884 68.1133 113.053C68.0156 113.223 67.9668 113.416 67.9668 113.635ZM69.29 109.137C68.9743 109.137 68.7139 109.216 68.5088 109.372C68.307 109.525 68.2061 109.746 68.2061 110.036C68.2061 110.241 68.2549 110.417 68.3525 110.563C68.4535 110.71 68.5885 110.837 68.7578 110.944C68.9271 111.048 69.1143 111.146 69.3193 111.237C69.5179 111.149 69.6969 111.053 69.8564 110.949C70.0192 110.842 70.1478 110.715 70.2422 110.568C70.3398 110.418 70.3887 110.239 70.3887 110.031C70.3887 109.745 70.2861 109.525 70.0811 109.372C69.8792 109.216 69.6156 109.137 69.29 109.137Z" fill="white"/>
<path d="M20.0469 143.03L18.3281 137.429H18.2842C18.2907 137.563 18.3005 137.765 18.3135 138.035C18.3298 138.302 18.3444 138.587 18.3574 138.889C18.3704 139.192 18.377 139.466 18.377 139.71V143.03H17.0244V135.891H19.085L20.7744 141.35H20.8037L22.5957 135.891H24.6562V143.03H23.2451V139.651C23.2451 139.427 23.2484 139.168 23.2549 138.875C23.2646 138.582 23.276 138.303 23.2891 138.04C23.3021 137.773 23.3118 137.573 23.3184 137.439H23.2744L21.4336 143.03H20.0469ZM31.3506 137.571V143.03H30.208L30.0078 142.332H29.9297C29.8125 142.517 29.666 142.669 29.4902 142.786C29.3145 142.903 29.1208 142.989 28.9092 143.045C28.6976 143.1 28.4779 143.128 28.25 143.128C27.8594 143.128 27.5192 143.059 27.2295 142.923C26.9398 142.783 26.7135 142.566 26.5508 142.273C26.3913 141.98 26.3115 141.599 26.3115 141.131V137.571H27.8008V140.76C27.8008 141.15 27.8708 141.445 28.0107 141.643C28.1507 141.842 28.3737 141.941 28.6797 141.941C28.9824 141.941 29.2201 141.873 29.3926 141.736C29.5651 141.596 29.6855 141.393 29.7539 141.126C29.8255 140.856 29.8613 140.527 29.8613 140.139V137.571H31.3506ZM37.874 140.291C37.874 140.747 37.8122 141.15 37.6885 141.502C37.568 141.853 37.3906 142.151 37.1562 142.395C36.9251 142.636 36.6452 142.818 36.3164 142.942C35.9909 143.066 35.623 143.128 35.2129 143.128C34.8288 143.128 34.4756 143.066 34.1533 142.942C33.8343 142.818 33.556 142.636 33.3184 142.395C33.084 142.151 32.9017 141.853 32.7715 141.502C32.6445 141.15 32.5811 140.747 32.5811 140.291C32.5811 139.685 32.6885 139.173 32.9033 138.753C33.1182 138.333 33.4242 138.014 33.8213 137.796C34.2184 137.578 34.6921 137.469 35.2422 137.469C35.7533 137.469 36.2057 137.578 36.5996 137.796C36.9967 138.014 37.3076 138.333 37.5322 138.753C37.7601 139.173 37.874 139.685 37.874 140.291ZM34.0996 140.291C34.0996 140.649 34.1387 140.95 34.2168 141.194C34.2949 141.438 34.417 141.622 34.583 141.746C34.749 141.87 34.9655 141.931 35.2324 141.931C35.4961 141.931 35.7093 141.87 35.8721 141.746C36.0381 141.622 36.1585 141.438 36.2334 141.194C36.3115 140.95 36.3506 140.649 36.3506 140.291C36.3506 139.929 36.3115 139.63 36.2334 139.392C36.1585 139.151 36.0381 138.971 35.8721 138.85C35.7061 138.73 35.4896 138.67 35.2227 138.67C34.8288 138.67 34.5423 138.805 34.3633 139.075C34.1875 139.345 34.0996 139.75 34.0996 140.291ZM45.5156 137.469C46.1341 137.469 46.6012 137.628 46.917 137.947C47.236 138.263 47.3955 138.771 47.3955 139.47V143.03H45.9014V139.842C45.9014 139.451 45.8346 139.156 45.7012 138.958C45.5677 138.759 45.361 138.66 45.0811 138.66C44.6872 138.66 44.4072 138.802 44.2412 139.085C44.0752 139.365 43.9922 139.767 43.9922 140.291V143.03H42.5029V139.842C42.5029 139.581 42.4736 139.363 42.415 139.187C42.3564 139.011 42.2669 138.88 42.1465 138.792C42.026 138.704 41.8714 138.66 41.6826 138.66C41.4059 138.66 41.1878 138.73 41.0283 138.87C40.8721 139.007 40.7598 139.21 40.6914 139.48C40.6263 139.747 40.5938 140.074 40.5938 140.462V143.03H39.1045V137.571H40.2422L40.4424 138.269H40.5254C40.6361 138.08 40.7744 137.927 40.9404 137.81C41.1097 137.693 41.2952 137.607 41.4971 137.552C41.6989 137.496 41.904 137.469 42.1123 137.469C42.5127 137.469 42.8512 137.534 43.1279 137.664C43.4079 137.794 43.6227 137.996 43.7725 138.269H43.9043C44.0671 137.989 44.2965 137.786 44.5928 137.659C44.8923 137.532 45.1999 137.469 45.5156 137.469ZM51.165 137.459C51.8975 137.459 52.459 137.618 52.8496 137.937C53.2402 138.256 53.4355 138.741 53.4355 139.392V143.03H52.3955L52.1074 142.288H52.0684C51.9121 142.483 51.7526 142.643 51.5898 142.766C51.4271 142.89 51.2399 142.981 51.0283 143.04C50.8167 143.098 50.5596 143.128 50.2568 143.128C49.9346 143.128 49.6449 143.066 49.3877 142.942C49.1338 142.818 48.9336 142.63 48.7871 142.376C48.6406 142.119 48.5674 141.793 48.5674 141.399C48.5674 140.82 48.7708 140.393 49.1777 140.12C49.5846 139.843 50.195 139.69 51.0088 139.661L51.9561 139.632V139.392C51.9561 139.106 51.8812 138.896 51.7314 138.762C51.5817 138.629 51.3734 138.562 51.1064 138.562C50.8428 138.562 50.584 138.6 50.3301 138.675C50.0762 138.749 49.8223 138.844 49.5684 138.958L49.0752 137.952C49.3649 137.799 49.6888 137.678 50.0469 137.591C50.4082 137.503 50.7809 137.459 51.165 137.459ZM51.9561 140.501L51.3799 140.52C50.8981 140.533 50.5628 140.62 50.374 140.779C50.1885 140.939 50.0957 141.149 50.0957 141.409C50.0957 141.637 50.1624 141.8 50.2959 141.897C50.4294 141.992 50.6035 142.039 50.8184 142.039C51.1374 142.039 51.4059 141.944 51.624 141.756C51.8454 141.567 51.9561 141.298 51.9561 140.95V140.501ZM56.4629 137.571V143.03H54.9736V137.571H56.4629ZM55.7207 135.432C55.9421 135.432 56.1325 135.484 56.292 135.589C56.4515 135.69 56.5312 135.88 56.5312 136.16C56.5312 136.437 56.4515 136.629 56.292 136.736C56.1325 136.84 55.9421 136.892 55.7207 136.892C55.4961 136.892 55.304 136.84 55.1445 136.736C54.9883 136.629 54.9102 136.437 54.9102 136.16C54.9102 135.88 54.9883 135.69 55.1445 135.589C55.304 135.484 55.4961 135.432 55.7207 135.432ZM61.0479 138.689H59.7588V143.03H58.2695V138.689H57.4492V137.971L58.2695 137.571V137.171C58.2695 136.705 58.3477 136.344 58.5039 136.087C58.6634 135.826 58.8864 135.644 59.1729 135.54C59.4626 135.432 59.8044 135.379 60.1982 135.379C60.488 135.379 60.7516 135.403 60.9893 135.452C61.2269 135.497 61.4206 135.55 61.5703 135.608L61.1895 136.702C61.0755 136.666 60.9518 136.634 60.8184 136.604C60.6849 136.575 60.5319 136.56 60.3594 136.56C60.151 136.56 59.998 136.624 59.9004 136.751C59.806 136.874 59.7588 137.034 59.7588 137.229V137.571H61.0479V138.689ZM64.1582 137.469C64.6628 137.469 65.0973 137.566 65.4619 137.761C65.8265 137.954 66.1081 138.233 66.3066 138.601C66.5052 138.969 66.6045 139.418 66.6045 139.949V140.672H63.084C63.1003 141.092 63.2256 141.422 63.46 141.663C63.6976 141.9 64.0264 142.019 64.4463 142.019C64.7946 142.019 65.1136 141.983 65.4033 141.912C65.693 141.84 65.9909 141.733 66.2969 141.59V142.742C66.0267 142.875 65.7435 142.973 65.4473 143.035C65.1543 143.097 64.7979 143.128 64.3779 143.128C63.8311 143.128 63.346 143.027 62.9229 142.825C62.5029 142.623 62.1725 142.316 61.9316 141.902C61.694 141.489 61.5752 140.968 61.5752 140.34C61.5752 139.702 61.6826 139.171 61.8975 138.748C62.1156 138.321 62.4183 138.002 62.8057 137.791C63.193 137.576 63.6439 137.469 64.1582 137.469ZM64.168 138.528C63.8783 138.528 63.6374 138.621 63.4453 138.806C63.2565 138.992 63.1475 139.283 63.1182 139.68H65.208C65.2048 139.459 65.1641 139.262 65.0859 139.09C65.0111 138.917 64.8971 138.78 64.7441 138.679C64.5944 138.579 64.4023 138.528 64.168 138.528ZM72.0195 143.03H70.5303V135.891H74.6221V137.132H72.0195V138.972H74.4414V140.208H72.0195V143.03ZM78.9482 137.469C79.0231 137.469 79.1094 137.473 79.207 137.483C79.3079 137.49 79.3893 137.499 79.4512 137.512L79.3389 138.909C79.29 138.893 79.2201 138.881 79.1289 138.875C79.041 138.865 78.9645 138.86 78.8994 138.86C78.7074 138.86 78.5202 138.885 78.3379 138.933C78.1589 138.982 77.9977 139.062 77.8545 139.173C77.7113 139.28 77.5973 139.423 77.5127 139.602C77.4313 139.778 77.3906 139.995 77.3906 140.252V143.03H75.9014V137.571H77.0293L77.249 138.489H77.3223C77.4297 138.303 77.5632 138.134 77.7227 137.981C77.8854 137.825 78.0693 137.701 78.2744 137.61C78.4827 137.516 78.7074 137.469 78.9482 137.469ZM82.6934 137.469C83.1979 137.469 83.6325 137.566 83.9971 137.761C84.3617 137.954 84.6432 138.233 84.8418 138.601C85.0404 138.969 85.1396 139.418 85.1396 139.949V140.672H81.6191C81.6354 141.092 81.7607 141.422 81.9951 141.663C82.2327 141.9 82.5615 142.019 82.9814 142.019C83.3298 142.019 83.6488 141.983 83.9385 141.912C84.2282 141.84 84.526 141.733 84.832 141.59V142.742C84.5618 142.875 84.2786 142.973 83.9824 143.035C83.6895 143.097 83.333 143.128 82.9131 143.128C82.3662 143.128 81.8812 143.027 81.458 142.825C81.0381 142.623 80.7077 142.316 80.4668 141.902C80.2292 141.489 80.1104 140.968 80.1104 140.34C80.1104 139.702 80.2178 139.171 80.4326 138.748C80.6507 138.321 80.9535 138.002 81.3408 137.791C81.7282 137.576 82.179 137.469 82.6934 137.469ZM82.7031 138.528C82.4134 138.528 82.1725 138.621 81.9805 138.806C81.7917 138.992 81.6826 139.283 81.6533 139.68H83.7432C83.7399 139.459 83.6992 139.262 83.6211 139.09C83.5462 138.917 83.4323 138.78 83.2793 138.679C83.1296 138.579 82.9375 138.528 82.7031 138.528ZM88.0791 143.128C87.4704 143.128 86.974 142.89 86.5898 142.415C86.209 141.936 86.0186 141.235 86.0186 140.31C86.0186 139.376 86.2122 138.67 86.5996 138.191C86.987 137.709 87.4932 137.469 88.1182 137.469C88.3786 137.469 88.6081 137.504 88.8066 137.576C89.0052 137.648 89.1761 137.744 89.3193 137.864C89.4658 137.984 89.5895 138.12 89.6904 138.269H89.7393C89.7197 138.165 89.6953 138.012 89.666 137.81C89.64 137.605 89.627 137.395 89.627 137.18V135.432H91.1211V143.03H89.9785L89.6904 142.322H89.627C89.5326 142.472 89.4137 142.608 89.2705 142.732C89.1305 142.853 88.9629 142.949 88.7676 143.02C88.5723 143.092 88.3428 143.128 88.0791 143.128ZM88.6016 141.941C89.0085 141.941 89.2949 141.821 89.4609 141.58C89.6302 141.336 89.7197 140.969 89.7295 140.481V140.32C89.7295 139.789 89.6481 139.384 89.4854 139.104C89.3226 138.821 89.0199 138.679 88.5771 138.679C88.2484 138.679 87.9912 138.821 87.8057 139.104C87.6201 139.387 87.5273 139.796 87.5273 140.33C87.5273 140.864 87.6201 141.266 87.8057 141.536C87.9945 141.806 88.2598 141.941 88.6016 141.941ZM94.9297 137.469C95.4342 137.469 95.8688 137.566 96.2334 137.761C96.598 137.954 96.8796 138.233 97.0781 138.601C97.2767 138.969 97.376 139.418 97.376 139.949V140.672H93.8555C93.8717 141.092 93.9971 141.422 94.2314 141.663C94.4691 141.9 94.7979 142.019 95.2178 142.019C95.5661 142.019 95.8851 141.983 96.1748 141.912C96.4645 141.84 96.7624 141.733 97.0684 141.59V142.742C96.7982 142.875 96.515 142.973 96.2188 143.035C95.9258 143.097 95.5693 143.128 95.1494 143.128C94.6025 143.128 94.1175 143.027 93.6943 142.825C93.2744 142.623 92.944 142.316 92.7031 141.902C92.4655 141.489 92.3467 140.968 92.3467 140.34C92.3467 139.702 92.4541 139.171 92.6689 138.748C92.887 138.321 93.1898 138.002 93.5771 137.791C93.9645 137.576 94.4154 137.469 94.9297 137.469ZM94.9395 138.528C94.6497 138.528 94.4089 138.621 94.2168 138.806C94.028 138.992 93.9189 139.283 93.8896 139.68H95.9795C95.9762 139.459 95.9355 139.262 95.8574 139.09C95.7826 138.917 95.6686 138.78 95.5156 138.679C95.3659 138.579 95.1738 138.528 94.9395 138.528ZM101.634 137.469C101.709 137.469 101.795 137.473 101.893 137.483C101.993 137.49 102.075 137.499 102.137 137.512L102.024 138.909C101.976 138.893 101.906 138.881 101.814 138.875C101.727 138.865 101.65 138.86 101.585 138.86C101.393 138.86 101.206 138.885 101.023 138.933C100.844 138.982 100.683 139.062 100.54 139.173C100.397 139.28 100.283 139.423 100.198 139.602C100.117 139.778 100.076 139.995 100.076 140.252V143.03H98.5869V137.571H99.7148L99.9346 138.489H100.008C100.115 138.303 100.249 138.134 100.408 137.981C100.571 137.825 100.755 137.701 100.96 137.61C101.168 137.516 101.393 137.469 101.634 137.469ZM104.617 137.571V143.03H103.128V137.571H104.617ZM103.875 135.432C104.096 135.432 104.287 135.484 104.446 135.589C104.606 135.69 104.686 135.88 104.686 136.16C104.686 136.437 104.606 136.629 104.446 136.736C104.287 136.84 104.096 136.892 103.875 136.892C103.65 136.892 103.458 136.84 103.299 136.736C103.143 136.629 103.064 136.437 103.064 136.16C103.064 135.88 103.143 135.69 103.299 135.589C103.458 135.484 103.65 135.432 103.875 135.432ZM108.401 143.128C107.861 143.128 107.4 143.03 107.02 142.835C106.639 142.636 106.349 142.33 106.15 141.917C105.952 141.503 105.853 140.974 105.853 140.33C105.853 139.663 105.965 139.119 106.189 138.699C106.417 138.276 106.731 137.965 107.132 137.766C107.535 137.568 108.003 137.469 108.533 137.469C108.911 137.469 109.236 137.506 109.51 137.581C109.786 137.652 110.027 137.739 110.232 137.84L109.793 138.992C109.559 138.898 109.34 138.821 109.139 138.762C108.937 138.701 108.735 138.67 108.533 138.67C108.273 138.67 108.056 138.732 107.884 138.855C107.711 138.976 107.583 139.158 107.498 139.402C107.413 139.646 107.371 139.952 107.371 140.32C107.371 140.681 107.417 140.981 107.508 141.219C107.599 141.456 107.731 141.634 107.903 141.751C108.076 141.865 108.286 141.922 108.533 141.922C108.842 141.922 109.118 141.881 109.358 141.8C109.599 141.715 109.834 141.598 110.062 141.448V142.722C109.834 142.866 109.594 142.968 109.344 143.03C109.096 143.095 108.782 143.128 108.401 143.128ZM112.82 135.432V138.831C112.82 139.036 112.812 139.241 112.796 139.446C112.78 139.651 112.762 139.856 112.742 140.061H112.762C112.863 139.918 112.965 139.776 113.069 139.636C113.177 139.497 113.291 139.361 113.411 139.231L114.939 137.571H116.619L114.451 139.939L116.751 143.03H115.032L113.46 140.818L112.82 141.331V143.03H111.331V135.432H112.82ZM126.17 139.392C126.17 140.196 126.015 140.869 125.706 141.409C125.4 141.946 124.956 142.351 124.373 142.625C123.79 142.895 123.089 143.03 122.269 143.03H120.247V135.891H122.488C123.237 135.891 123.886 136.025 124.437 136.292C124.987 136.555 125.413 136.948 125.716 137.469C126.019 137.986 126.17 138.627 126.17 139.392ZM124.598 139.431C124.598 138.904 124.52 138.471 124.363 138.133C124.21 137.791 123.982 137.538 123.68 137.376C123.38 137.213 123.009 137.132 122.566 137.132H121.761V141.78H122.41C123.149 141.78 123.698 141.583 124.056 141.189C124.417 140.795 124.598 140.209 124.598 139.431ZM129.769 137.459C130.501 137.459 131.062 137.618 131.453 137.937C131.844 138.256 132.039 138.741 132.039 139.392V143.03H130.999L130.711 142.288H130.672C130.516 142.483 130.356 142.643 130.193 142.766C130.031 142.89 129.843 142.981 129.632 143.04C129.42 143.098 129.163 143.128 128.86 143.128C128.538 143.128 128.248 143.066 127.991 142.942C127.737 142.818 127.537 142.63 127.391 142.376C127.244 142.119 127.171 141.793 127.171 141.399C127.171 140.82 127.374 140.393 127.781 140.12C128.188 139.843 128.799 139.69 129.612 139.661L130.56 139.632V139.392C130.56 139.106 130.485 138.896 130.335 138.762C130.185 138.629 129.977 138.562 129.71 138.562C129.446 138.562 129.188 138.6 128.934 138.675C128.68 138.749 128.426 138.844 128.172 138.958L127.679 137.952C127.968 137.799 128.292 137.678 128.65 137.591C129.012 137.503 129.384 137.459 129.769 137.459ZM130.56 140.501L129.983 140.52C129.502 140.533 129.166 140.62 128.978 140.779C128.792 140.939 128.699 141.149 128.699 141.409C128.699 141.637 128.766 141.8 128.899 141.897C129.033 141.992 129.207 142.039 129.422 142.039C129.741 142.039 130.009 141.944 130.228 141.756C130.449 141.567 130.56 141.298 130.56 140.95V140.501ZM134.876 143.03L132.796 137.571H134.354L135.408 140.681C135.467 140.864 135.512 141.056 135.545 141.258C135.581 141.459 135.605 141.64 135.618 141.8H135.657C135.667 141.627 135.69 141.443 135.726 141.248C135.765 141.052 135.815 140.864 135.877 140.681L136.927 137.571H138.484L136.404 143.03H134.876ZM140.76 137.571V143.03H139.271V137.571H140.76ZM140.018 135.432C140.239 135.432 140.429 135.484 140.589 135.589C140.748 135.69 140.828 135.88 140.828 136.16C140.828 136.437 140.748 136.629 140.589 136.736C140.429 136.84 140.239 136.892 140.018 136.892C139.793 136.892 139.601 136.84 139.441 136.736C139.285 136.629 139.207 136.437 139.207 136.16C139.207 135.88 139.285 135.69 139.441 135.589C139.601 135.484 139.793 135.432 140.018 135.432ZM144.056 143.128C143.447 143.128 142.951 142.89 142.566 142.415C142.186 141.936 141.995 141.235 141.995 140.31C141.995 139.376 142.189 138.67 142.576 138.191C142.964 137.709 143.47 137.469 144.095 137.469C144.355 137.469 144.585 137.504 144.783 137.576C144.982 137.648 145.153 137.744 145.296 137.864C145.442 137.984 145.566 138.12 145.667 138.269H145.716C145.696 138.165 145.672 138.012 145.643 137.81C145.617 137.605 145.604 137.395 145.604 137.18V135.432H147.098V143.03H145.955L145.667 142.322H145.604C145.509 142.472 145.39 142.608 145.247 142.732C145.107 142.853 144.939 142.949 144.744 143.02C144.549 143.092 144.319 143.128 144.056 143.128ZM144.578 141.941C144.985 141.941 145.271 141.821 145.438 141.58C145.607 141.336 145.696 140.969 145.706 140.481V140.32C145.706 139.789 145.625 139.384 145.462 139.104C145.299 138.821 144.996 138.679 144.554 138.679C144.225 138.679 143.968 138.821 143.782 139.104C143.597 139.387 143.504 139.796 143.504 140.33C143.504 140.864 143.597 141.266 143.782 141.536C143.971 141.806 144.236 141.941 144.578 141.941Z" fill="white"/>
<path d="M264.547 146.732C264.547 147.536 264.392 148.209 264.083 148.749C263.777 149.286 263.333 149.691 262.75 149.965C262.167 150.235 261.466 150.37 260.646 150.37H258.624V143.231H260.865C261.614 143.231 262.263 143.365 262.813 143.632C263.364 143.896 263.79 144.288 264.093 144.809C264.396 145.326 264.547 145.967 264.547 146.732ZM262.975 146.771C262.975 146.244 262.896 145.811 262.74 145.473C262.587 145.131 262.359 144.879 262.057 144.716C261.757 144.553 261.386 144.472 260.943 144.472H260.138V149.12H260.787C261.526 149.12 262.075 148.923 262.433 148.529C262.794 148.135 262.975 147.549 262.975 146.771ZM268.16 144.809C268.665 144.809 269.099 144.906 269.464 145.102C269.828 145.294 270.11 145.574 270.309 145.941C270.507 146.309 270.606 146.758 270.606 147.289V148.012H267.086C267.102 148.432 267.228 148.762 267.462 149.003C267.7 149.241 268.028 149.359 268.448 149.359C268.797 149.359 269.116 149.324 269.405 149.252C269.695 149.18 269.993 149.073 270.299 148.93V150.082C270.029 150.215 269.745 150.313 269.449 150.375C269.156 150.437 268.8 150.468 268.38 150.468C267.833 150.468 267.348 150.367 266.925 150.165C266.505 149.963 266.174 149.656 265.934 149.242C265.696 148.829 265.577 148.308 265.577 147.68C265.577 147.042 265.685 146.511 265.899 146.088C266.118 145.661 266.42 145.342 266.808 145.131C267.195 144.916 267.646 144.809 268.16 144.809ZM268.17 145.868C267.88 145.868 267.639 145.961 267.447 146.146C267.258 146.332 267.149 146.623 267.12 147.021H269.21C269.207 146.799 269.166 146.602 269.088 146.43C269.013 146.257 268.899 146.12 268.746 146.02C268.596 145.919 268.404 145.868 268.17 145.868ZM273.307 142.772V144.54C273.307 144.745 273.3 144.949 273.287 145.15C273.277 145.352 273.264 145.508 273.248 145.619H273.307C273.45 145.395 273.645 145.204 273.893 145.048C274.14 144.888 274.461 144.809 274.854 144.809C275.466 144.809 275.963 145.048 276.344 145.526C276.725 146.005 276.915 146.706 276.915 147.631C276.915 148.253 276.827 148.775 276.651 149.198C276.476 149.618 276.23 149.936 275.914 150.15C275.598 150.362 275.232 150.468 274.815 150.468C274.415 150.468 274.099 150.396 273.868 150.253C273.637 150.11 273.45 149.949 273.307 149.77H273.204L272.955 150.37H271.817V142.772H273.307ZM274.376 146C274.116 146 273.909 146.054 273.756 146.161C273.603 146.269 273.491 146.43 273.419 146.645C273.351 146.859 273.313 147.131 273.307 147.46V147.621C273.307 148.152 273.385 148.559 273.541 148.842C273.697 149.122 273.982 149.262 274.396 149.262C274.701 149.262 274.944 149.12 275.123 148.837C275.305 148.554 275.396 148.145 275.396 147.611C275.396 147.077 275.305 146.675 275.123 146.405C274.941 146.135 274.692 146 274.376 146ZM279.635 144.911V150.37H278.146V144.911H279.635ZM278.893 142.772C279.114 142.772 279.304 142.825 279.464 142.929C279.623 143.03 279.703 143.22 279.703 143.5C279.703 143.777 279.623 143.969 279.464 144.076C279.304 144.18 279.114 144.232 278.893 144.232C278.668 144.232 278.476 144.18 278.316 144.076C278.16 143.969 278.082 143.777 278.082 143.5C278.082 143.22 278.16 143.03 278.316 142.929C278.476 142.825 278.668 142.772 278.893 142.772ZM283.502 149.281C283.665 149.281 283.823 149.265 283.976 149.232C284.132 149.2 284.286 149.159 284.439 149.11V150.219C284.28 150.29 284.081 150.349 283.844 150.395C283.609 150.443 283.352 150.468 283.072 150.468C282.747 150.468 282.454 150.416 282.193 150.312C281.936 150.204 281.733 150.02 281.583 149.76C281.437 149.496 281.363 149.13 281.363 148.661V146.029H280.65V145.399L281.471 144.901L281.9 143.749H282.853V144.911H284.381V146.029H282.853V148.661C282.853 148.869 282.911 149.026 283.028 149.13C283.149 149.231 283.307 149.281 283.502 149.281Z" fill="white"/>
<path d="M23.2734 25.9099L20.5234 16.949H20.4531C20.4635 17.1625 20.4792 17.4854 20.5 17.9177C20.526 18.3448 20.5495 18.8005 20.5703 19.2849C20.5911 19.7693 20.6016 20.2068 20.6016 20.5974V25.9099H18.4375V14.488H21.7344L24.4375 23.2224H24.4844L27.3516 14.488H30.6484V25.9099H28.3906V20.5037C28.3906 20.1443 28.3958 19.7302 28.4062 19.2615C28.4219 18.7927 28.4401 18.3474 28.4609 17.9255C28.4818 17.4985 28.4974 17.1781 28.5078 16.9646H28.4375L25.4922 25.9099H23.2734ZM41.2812 21.5271C41.2812 22.2563 41.1823 22.9021 40.9844 23.4646C40.7917 24.0271 40.5078 24.5037 40.1328 24.8943C39.763 25.2797 39.3151 25.5714 38.7891 25.7693C38.2682 25.9672 37.6797 26.0662 37.0234 26.0662C36.4089 26.0662 35.8438 25.9672 35.3281 25.7693C34.8177 25.5714 34.3724 25.2797 33.9922 24.8943C33.6172 24.5037 33.3255 24.0271 33.1172 23.4646C32.9141 22.9021 32.8125 22.2563 32.8125 21.5271C32.8125 20.5583 32.9844 19.738 33.3281 19.0662C33.6719 18.3943 34.1615 17.8839 34.7969 17.5349C35.4323 17.186 36.1901 17.0115 37.0703 17.0115C37.888 17.0115 38.612 17.186 39.2422 17.5349C39.8776 17.8839 40.375 18.3943 40.7344 19.0662C41.099 19.738 41.2812 20.5583 41.2812 21.5271ZM35.2422 21.5271C35.2422 22.1 35.3047 22.5818 35.4297 22.9724C35.5547 23.363 35.75 23.6573 36.0156 23.8552C36.2812 24.0531 36.6276 24.1521 37.0547 24.1521C37.4766 24.1521 37.8177 24.0531 38.0781 23.8552C38.3438 23.6573 38.5365 23.363 38.6562 22.9724C38.7812 22.5818 38.8438 22.1 38.8438 21.5271C38.8438 20.949 38.7812 20.4698 38.6562 20.0896C38.5365 19.7042 38.3438 19.4151 38.0781 19.2224C37.8125 19.0297 37.4661 18.9333 37.0391 18.9333C36.4089 18.9333 35.9505 19.1495 35.6641 19.5818C35.3828 20.0141 35.2422 20.6625 35.2422 21.5271Z" fill="#084A5F"/>
<path d="M48.2734 25.9099L45.5234 16.949H45.4531C45.4635 17.1625 45.4792 17.4854 45.5 17.9177C45.526 18.3448 45.5495 18.8005 45.5703 19.2849C45.5911 19.7693 45.6016 20.2068 45.6016 20.5974V25.9099H43.4375V14.488H46.7344L49.4375 23.2224H49.4844L52.3516 14.488H55.6484V25.9099H53.3906V20.5037C53.3906 20.1443 53.3958 19.7302 53.4062 19.2615C53.4219 18.7927 53.4401 18.3474 53.4609 17.9255C53.4818 17.4985 53.4974 17.1781 53.5078 16.9646H53.4375L50.4922 25.9099H48.2734ZM66.2812 21.5271C66.2812 22.2563 66.1823 22.9021 65.9844 23.4646C65.7917 24.0271 65.5078 24.5037 65.1328 24.8943C64.763 25.2797 64.3151 25.5714 63.7891 25.7693C63.2682 25.9672 62.6797 26.0662 62.0234 26.0662C61.4089 26.0662 60.8438 25.9672 60.3281 25.7693C59.8177 25.5714 59.3724 25.2797 58.9922 24.8943C58.6172 24.5037 58.3255 24.0271 58.1172 23.4646C57.9141 22.9021 57.8125 22.2563 57.8125 21.5271C57.8125 20.5583 57.9844 19.738 58.3281 19.0662C58.6719 18.3943 59.1615 17.8839 59.7969 17.5349C60.4323 17.186 61.1901 17.0115 62.0703 17.0115C62.888 17.0115 63.612 17.186 64.2422 17.5349C64.8776 17.8839 65.375 18.3943 65.7344 19.0662C66.099 19.738 66.2812 20.5583 66.2812 21.5271ZM60.2422 21.5271C60.2422 22.1 60.3047 22.5818 60.4297 22.9724C60.5547 23.363 60.75 23.6573 61.0156 23.8552C61.2812 24.0531 61.6276 24.1521 62.0547 24.1521C62.4766 24.1521 62.8177 24.0531 63.0781 23.8552C63.3438 23.6573 63.5365 23.363 63.6562 22.9724C63.7812 22.5818 63.8438 22.1 63.8438 21.5271C63.8438 20.949 63.7812 20.4698 63.6562 20.0896C63.5365 19.7042 63.3438 19.4151 63.0781 19.2224C62.8125 19.0297 62.4661 18.9333 62.0391 18.9333C61.4089 18.9333 60.9505 19.1495 60.6641 19.5818C60.3828 20.0141 60.2422 20.6625 60.2422 21.5271Z" fill="#FFCB05"/>
</g>
<defs>
<linearGradient id="paint0_linear_160_1660" x1="181.34" y1="93.6633" x2="272.923" y2="93.6633" gradientUnits="userSpaceOnUse">
<stop stop-color="#FFCB05"/>
<stop offset="1" stop-color="#084A5F" stop-opacity="0.04"/>
</linearGradient>
<linearGradient id="paint1_linear_160_1660" x1="262.823" y1="93.6633" x2="334.54" y2="93.6633" gradientUnits="userSpaceOnUse">
<stop stop-color="#084A5F"/>
<stop offset="1" stop-color="#FFCB05" stop-opacity="0"/>
</linearGradient>
<linearGradient id="paint2_linear_160_1660" x1="18.764" y1="47.5875" x2="45.4233" y2="71.3957" gradientUnits="userSpaceOnUse">
<stop stop-color="#E6AC3C"/>
<stop offset="1" stop-color="#FFDA93"/>
</linearGradient>
<clipPath id="clip0_160_1660">
<rect width="321" height="162" fill="white"/>
</clipPath>
</defs>
</svg>
