<svg width="37" height="36" viewBox="0 0 37 36" fill="none" xmlns="http://www.w3.org/2000/svg">
<path d="M5.56333 7.56833L0.353333 2.35667L2.71 0L35.7083 32.9967L33.3517 35.355L27.835 29.8383C24.9032 31.6979 21.5018 32.6825 18.03 32.6767C9.04333 32.6767 1.56667 26.21 0 17.6767C0.716146 13.7955 2.66759 10.2499 5.56333 7.56833ZM22.6267 24.63L20.1867 22.19C19.2534 22.6365 18.2046 22.7826 17.1849 22.608C16.1651 22.4334 15.2247 21.9468 14.4931 21.2152C13.7616 20.4837 13.2749 19.5432 13.1004 18.5234C12.9258 17.5037 13.0718 16.4549 13.5183 15.5217L11.0783 13.0817C10.0179 14.6841 9.54378 16.6039 9.73638 18.5158C9.92898 20.4277 10.7764 22.2144 12.1352 23.5731C13.494 24.9319 15.2806 25.7794 17.1925 25.9719C19.1044 26.1645 21.0242 25.6905 22.6267 24.63ZM11.32 3.94333C13.3983 3.12667 15.6633 2.67667 18.03 2.67667C27.0167 2.67667 34.4933 9.14333 36.0617 17.6767C35.5512 20.4534 34.4033 23.0738 32.7083 25.3317L26.275 18.8983C26.4661 17.611 26.353 16.2968 25.9449 15.0611C25.5367 13.8253 24.8448 12.7024 23.9246 11.7821C23.0043 10.8619 21.8813 10.17 20.6456 9.76179C19.4098 9.35363 18.0956 9.24057 16.8083 9.43167L11.32 3.94333Z" fill="white" fill-opacity="0.5"/>
</svg>
