<svg width="38" height="38" viewBox="0 0 38 38" fill="none" xmlns="http://www.w3.org/2000/svg">
<path d="M12.7916 1.04202C16.9469 -0.38452 21.4653 -0.345284 25.5953 1.1532C27.8633 2.0024 29.9413 3.29109 31.7101 4.94533C31.1092 5.58837 30.4751 6.18934 29.8622 6.81435C28.6963 7.97823 27.5314 9.13811 26.3675 10.294C25.2073 9.18422 23.8038 8.36102 22.2689 7.89009C20.3048 7.29705 18.2154 7.25645 16.2298 7.77273C14.2442 8.28901 12.4391 9.34222 11.0127 10.8168C9.76757 12.0835 8.82462 13.615 8.25422 15.2971L2.02515 10.4743C4.25478 6.0528 8.11524 2.67072 12.7916 1.04202Z" fill="#E33629"/>
<path d="M0.372594 15.2518C0.707154 13.5925 1.26301 11.9855 2.02527 10.4741L8.25434 15.3089C7.43969 17.7087 7.43969 20.3102 8.25434 22.7099C6.17898 24.3125 4.10263 25.9231 2.02527 27.5417C0.117634 23.7445 -0.464161 19.4181 0.372594 15.2518Z" fill="#F8BD00"/>
<path d="M19.0055 15.4473H36.8904C37.5019 18.8035 37.3364 22.2552 36.4066 25.5376C35.551 28.5559 33.8888 31.2839 31.5989 33.4283C29.5886 31.8598 27.5693 30.3033 25.5591 28.7348C26.5557 28.0625 27.4064 27.1959 28.0601 26.187C28.7137 25.1781 29.157 24.0476 29.3632 22.8633H19.0055C19.0025 20.3933 19.0055 17.9203 19.0055 15.4473Z" fill="#587DBD"/>
<path d="M2.02197 27.542C4.09933 25.9394 6.17569 24.3288 8.25104 22.7102C9.05397 25.0666 10.581 27.109 12.6141 28.5456C13.882 29.4422 15.323 30.0644 16.8449 30.3726C18.3445 30.6515 19.8827 30.6515 21.3823 30.3726C22.8776 30.1198 24.3034 29.5569 25.568 28.7199C27.5783 30.2885 29.5976 31.845 31.6078 33.4135C29.4079 35.4139 26.7262 36.8086 23.8252 37.4611C20.6233 38.2138 17.2864 38.1777 14.1015 37.3559C11.5825 36.6833 9.22965 35.4977 7.19033 33.8733C5.03202 32.1593 3.26909 29.9998 2.02197 27.542Z" fill="#319F43"/>
</svg>
