<svg width="24" height="24" viewBox="0 0 24 24" fill="none" xmlns="http://www.w3.org/2000/svg">
<path d="M8.84143 10.1047C11.6318 10.1047 13.8938 7.84272 13.8938 5.05237C13.8938 2.26202 11.6318 0 8.84143 0C6.05109 0 3.78906 2.26202 3.78906 5.05237C3.78906 7.84272 6.05109 10.1047 8.84143 10.1047Z" fill="#084A5F"/>
<path d="M8.84165 23.9998C13.7248 23.9998 17.6833 21.7377 17.6833 18.9474C17.6833 16.157 13.7248 13.895 8.84165 13.895C3.95854 13.895 0 16.157 0 18.9474C0 21.7377 3.95854 23.9998 8.84165 23.9998Z" fill="#084A5F"/>
<path d="M23.9964 18.9463C23.9964 21.0393 21.4248 22.7356 18.286 22.7356C19.2106 21.7251 19.8472 20.4557 19.8472 18.9488C19.8472 17.4394 19.2093 16.17 18.2822 15.1583C21.4223 15.157 23.9964 16.8546 23.9964 18.9463ZM20.2072 5.05228C20.2076 5.662 20.0608 6.26281 19.7794 6.8037C19.498 7.34459 19.0903 7.80958 18.5907 8.15921C18.0912 8.50883 17.5147 8.73275 16.9102 8.81197C16.3056 8.89118 15.6909 8.82334 15.1182 8.6142C15.7352 7.52863 16.0587 6.30097 16.0566 5.05228C16.0566 3.75761 15.7156 2.54252 15.1194 1.49162C15.6921 1.28275 16.3067 1.2151 16.9111 1.29444C17.5154 1.37377 18.0918 1.59774 18.5911 1.94733C19.0905 2.29693 19.4981 2.76183 19.7794 3.30258C20.0608 3.84334 20.2075 4.44272 20.2072 5.05228Z" fill="#FFCB05"/>
</svg>
