<svg width="24" height="24" viewBox="0 0 24 24" fill="none" xmlns="http://www.w3.org/2000/svg">
<path fill-rule="evenodd" clip-rule="evenodd" d="M3.99978 24C2.93897 24 1.92161 23.6514 1.17151 23.0308C0.421404 22.4102 0 21.5684 0 20.6908V9.66002C0 9.62252 0.00266667 9.58502 0.00666645 9.54972H0C0 8.91324 0.305316 8.30324 0.847953 7.85539L9.17282 0.968896C9.92289 0.348512 10.9401 0 12.0007 0C13.0613 0 14.0784 0.348512 14.8285 0.968896L23.152 7.85539C23.6947 8.30435 24 8.91435 24 9.54861H23.9933C23.9973 9.58501 24 9.62252 24 9.65892V20.6897C24 21.5673 23.5786 22.409 22.8285 23.0296C22.0784 23.6502 21.061 23.9989 20.0002 23.9989L3.99978 24ZM12.9419 2.52864L21.3321 9.4703V20.6919C21.3321 20.9844 21.1917 21.265 20.9416 21.4719C20.6916 21.6787 20.3525 21.795 19.9989 21.795H15.9991V16.2796C15.9991 15.4019 15.5777 14.5602 14.8276 13.9396C14.0775 13.319 13.0601 12.9704 11.9993 12.9704C10.9385 12.9704 9.92117 13.319 9.17106 13.9396C8.42096 14.5602 7.99956 15.4019 7.99956 16.2796V21.795H3.99978C3.64618 21.795 3.30706 21.6787 3.05702 21.4719C2.80699 21.265 2.66652 20.9844 2.66652 20.6919V9.4703L11.0567 2.52864C11.3067 2.32185 11.6458 2.20568 11.9993 2.20568C12.3529 2.20568 12.6919 2.32185 12.9419 2.52864Z" fill="#084A5F"/>
<path d="M15.75 15.5V21H8.25V20.25V15.5C8.25 14.3954 9.14543 13.5 10.25 13.5H13.75C14.8546 13.5 15.75 14.3954 15.75 15.5Z" fill="#FFCB05"/>
<path d="M8.25 20.25V21M8.25 21H15.75V15.5C15.75 14.3954 14.8546 13.5 13.75 13.5H10.25C9.14543 13.5 8.25 14.3954 8.25 15.5V21Z" stroke="#FFCB05"/>
</svg>
