<svg width="24" height="24" viewBox="0 0 24 24" fill="none" xmlns="http://www.w3.org/2000/svg">
<path d="M9.18079 23.6814C10.1061 23.8932 11.0533 24 12.0043 24C12.9532 23.999 13.8988 23.8915 14.8216 23.6796C15.0642 23.6236 15.2829 23.4972 15.4479 23.3177C15.613 23.1381 15.7163 22.9142 15.7438 22.6763L15.9553 20.8336C15.991 20.5041 16.1482 20.1976 16.3986 19.9694C16.649 19.7411 16.9761 19.6061 17.3211 19.5886C17.5507 19.579 17.779 19.6204 17.9893 19.7086L19.7454 20.4472C19.8981 20.5131 20.0635 20.5476 20.2309 20.5487C20.3983 20.5497 20.5641 20.5172 20.7177 20.4532C20.8722 20.3902 21.0105 20.2966 21.1244 20.1784C22.4157 18.8435 23.3797 17.2488 23.946 15.5108C24.0202 15.2802 24.0179 15.0333 23.9394 14.804C23.861 14.5748 23.7103 14.3745 23.5081 14.2309L21.9477 13.1269C21.7619 12.9974 21.6106 12.8276 21.5063 12.6313C21.402 12.4351 21.3476 12.2179 21.3476 11.9976C21.3476 11.7773 21.402 11.5601 21.5063 11.3639C21.6106 11.1676 21.7619 10.9978 21.9477 10.8683L23.5031 9.76669C23.7058 9.62284 23.8569 9.42208 23.9353 9.19223C24.0138 8.96238 24.0158 8.71481 23.941 8.48382C23.3745 6.74558 22.4093 5.15108 21.1162 3.81739C20.9449 3.64177 20.721 3.52147 20.4753 3.47311C20.2297 3.42475 19.9744 3.4507 19.7448 3.54738L17.9893 4.28901C17.8078 4.36762 17.6101 4.40902 17.4099 4.40902C17.0495 4.40834 16.7021 4.2801 16.4342 4.0489C16.1664 3.81769 15.9969 3.49979 15.9584 3.15616L15.7457 1.32007C15.7185 1.07908 15.6134 0.852288 15.4451 0.671428C15.2768 0.490568 15.0538 0.364692 14.8072 0.311416C13.889 0.114822 12.952 0.0104541 12.0112 0C11.064 0.0104843 10.1205 0.115048 9.1958 0.312016C8.94952 0.364988 8.72667 0.490459 8.5584 0.670879C8.39013 0.8513 8.28487 1.07765 8.25733 1.31827L8.04461 3.15556C8.00448 3.49974 7.8334 3.81764 7.56412 4.0484C7.28931 4.27229 6.94293 4.39933 6.58248 4.40842C6.38367 4.40829 6.18705 4.36866 6.00501 4.29201L4.2532 3.55038C4.02283 3.45283 3.76649 3.42653 3.51982 3.47513C3.27314 3.52374 3.04838 3.64483 2.87678 3.82159C1.58548 5.15558 0.621422 6.74952 0.055114 8.48682C-0.0196969 8.71771 -0.0177277 8.96521 0.0607486 9.19498C0.139225 9.42475 0.290318 9.62539 0.493066 9.76909L2.04967 10.8707C2.32775 11.0678 2.52426 11.3528 2.60451 11.6754C2.68475 11.998 2.64358 12.3374 2.48825 12.6336C2.38496 12.8301 2.23493 13.0005 2.0503 13.1311L0.49244 14.2345C0.289868 14.3781 0.138881 14.5785 0.0604091 14.808C-0.0180629 15.0376 -0.020132 15.2849 0.0544884 15.5156C0.619794 17.2546 1.58393 18.8501 2.87615 20.185C3.04686 20.3617 3.27079 20.4829 3.51673 20.5317C3.76267 20.5806 4.01837 20.5546 4.24819 20.4574L6.01126 19.7152C6.19333 19.6384 6.38978 19.5988 6.58873 19.5988H6.59374C6.95276 19.5992 7.29907 19.7263 7.56673 19.9558C7.83439 20.1853 8.0047 20.5011 8.04524 20.8432L8.25671 22.6775C8.28425 22.9157 8.38778 23.14 8.55317 23.3197C8.71856 23.4993 8.93774 23.6256 9.18079 23.6814ZM11.9999 15.7502C10.9629 15.7502 9.96828 15.3551 9.23496 14.6518C8.50163 13.9485 8.08966 12.9946 8.08966 12C8.08966 11.0054 8.50163 10.0515 9.23496 9.34822C9.96828 8.64492 10.9629 8.24981 11.9999 8.24981C13.037 8.24981 14.0316 8.64492 14.7649 9.34822C15.4983 10.0515 15.9102 11.0054 15.9102 12C15.9102 12.9946 15.4983 13.9485 14.7649 14.6518C14.0316 15.3551 13.037 15.7502 11.9999 15.7502Z" fill="#084A5F"/>
<circle cx="12" cy="12" r="4.5" fill="#FFCB05"/>
</svg>
