<svg width="24" height="24" viewBox="0 0 24 24" fill="none" xmlns="http://www.w3.org/2000/svg">
<path d="M6 15.75V20.25M12 13.5V20.25M18 18V20.25" stroke="#FFCB05" stroke-width="3" stroke-linecap="square" stroke-linejoin="round"/>
<path d="M13.5 8.4H21.75L13.5 1.8V8.4ZM3 0H15L24 7.2V21.6C24 22.2365 23.6839 22.847 23.1213 23.2971C22.5587 23.7471 21.7956 24 21 24H3C2.20435 24 1.44129 23.7471 0.87868 23.2971C0.31607 22.847 0 22.2365 0 21.6V2.4C0 1.068 1.335 0 3 0ZM4.5 21.6H7.5V14.4H4.5V21.6ZM10.5 21.6H13.5V12H10.5V21.6ZM16.5 21.6H19.5V16.8H16.5V21.6Z" fill="#084A5F"/>
<path d="M16.9337 4.88731L20.369 7.75H14V2.54031L16.9337 4.88731Z" fill="#FFCB05" stroke="#FFCB05"/>
</svg>
