<svg width="24" height="21" viewBox="0 0 24 21" fill="none" xmlns="http://www.w3.org/2000/svg">
<path fill-rule="evenodd" clip-rule="evenodd" d="M22.0908 5.78758C22.0272 5.78296 21.9566 5.78296 21.8826 5.78296H18.9622C16.5704 5.78296 14.5244 7.66588 14.5244 10.1202C14.5244 12.5744 16.5716 14.4573 18.9622 14.4573H21.8826C21.9566 14.4573 22.0272 14.4573 22.0931 14.4527C22.5847 14.4231 23.0487 14.2157 23.3988 13.8693C23.7488 13.5229 23.9609 13.061 23.9957 12.5698C24.0003 12.5004 24.0003 12.4252 24.0003 12.3558V7.88447C24.0003 7.81508 24.0003 7.7399 23.9957 7.67051C23.9609 7.17926 23.7488 6.7174 23.3988 6.37099C23.0487 6.02457 22.5847 5.81722 22.0931 5.78758H22.0908ZM18.7043 11.2767C19.3196 11.2767 19.8181 10.7586 19.8181 10.1202C19.8181 9.48172 19.3196 8.96357 18.7043 8.96357C18.0879 8.96357 17.5894 9.48172 17.5894 10.1202C17.5894 10.7586 18.0879 11.2767 18.7043 11.2767Z" fill="#FFCB05"/>
<path fill-rule="evenodd" clip-rule="evenodd" d="M21.8803 16.1922C21.9203 16.1906 21.9601 16.1984 21.9964 16.2151C22.0328 16.2318 22.0648 16.2568 22.0897 16.2881C22.1146 16.3194 22.1317 16.3562 22.1398 16.3954C22.1478 16.4346 22.1465 16.4751 22.1359 16.5137C21.9046 17.3372 21.5356 18.0404 20.9446 18.6303C20.0783 19.4977 18.9807 19.8805 17.6252 20.0633C16.3067 20.2402 14.6239 20.2402 12.4981 20.2402H10.0553C7.92955 20.2402 6.24556 20.2402 4.92821 20.0633C3.57269 19.8805 2.47509 19.4966 1.60881 18.6314C0.743684 17.7651 0.359698 16.6675 0.176958 15.312C1.37876e-07 13.9935 0 12.3107 0 10.1849V10.0553C0 7.92955 1.37876e-07 6.24556 0.176958 4.92705C0.359698 3.57153 0.743684 2.47393 1.60881 1.60765C2.47509 0.742527 3.57269 0.358541 4.92821 0.175801C6.24671 -5.17034e-08 7.92955 0 10.0553 0H12.4981C14.6239 0 16.3078 1.37876e-07 17.6252 0.176958C18.9807 0.359698 20.0783 0.743684 20.9446 1.60881C21.5356 2.20098 21.9046 2.90303 22.1359 3.72652C22.1465 3.76511 22.1478 3.80565 22.1398 3.84486C22.1317 3.88406 22.1146 3.92082 22.0897 3.95214C22.0648 3.98347 22.0328 4.00848 21.9964 4.02514C21.9601 4.04181 21.9203 4.04965 21.8803 4.04805H18.961C15.6798 4.04805 12.7884 6.6388 12.7884 10.1201C12.7884 13.6014 15.6798 16.1922 18.961 16.1922H21.8803ZM4.33719 4.62634C4.10713 4.62634 3.8865 4.71773 3.72382 4.88041C3.56114 5.04308 3.46975 5.26372 3.46975 5.49378C3.46975 5.72384 3.56114 5.94447 3.72382 6.10715C3.8865 6.26983 4.10713 6.36122 4.33719 6.36122H8.96353C9.19359 6.36122 9.41423 6.26983 9.5769 6.10715C9.73958 5.94447 9.83097 5.72384 9.83097 5.49378C9.83097 5.26372 9.73958 5.04308 9.5769 4.88041C9.41423 4.71773 9.19359 4.62634 8.96353 4.62634H4.33719Z" fill="#084A5F"/>
</svg>
