<svg width="9" height="9" viewBox="0 0 9 9" fill="none" xmlns="http://www.w3.org/2000/svg">
<path id="Star 2" d="M3.89601 1.26658C3.99501 0.567233 5.00499 0.567233 5.10399 1.26658C5.17242 1.74992 5.75261 1.9611 6.11571 1.63482C6.64109 1.16272 7.41478 1.81193 7.04109 2.4113C6.78282 2.82554 7.09153 3.36025 7.57941 3.3437C8.28533 3.31976 8.46071 4.3144 7.78918 4.53334C7.32506 4.68466 7.21785 5.29271 7.60222 5.59363C8.15837 6.02905 7.65338 6.90372 6.99822 6.63978C6.54543 6.45737 6.07245 6.85425 6.17346 7.33184C6.31962 8.02288 5.37055 8.36831 5.03833 7.745C4.80872 7.31421 4.19128 7.31421 3.96168 7.745C3.62945 8.36831 2.68038 8.02288 2.82654 7.33184C2.92755 6.85425 2.45457 6.45737 2.00178 6.63978C1.34662 6.90372 0.841628 6.02905 1.39778 5.59363C1.78215 5.29271 1.67494 4.68466 1.21082 4.53334C0.539289 4.3144 0.714671 3.31976 1.42059 3.3437C1.90847 3.36025 2.21718 2.82554 1.95891 2.4113C1.58522 1.81193 2.35891 1.16272 2.88429 1.63482C3.24739 1.9611 3.82758 1.74992 3.89601 1.26658Z" fill="#22C55E"/>
</svg>
